<svg width="53.3" height="33.8" viewBox="0 0 41 26" fill="none" xmlns="http://www.w3.org/2000/svg">
<path d="M13.8027 17.888C13.5551 18.6927 13.1838 19.4354 12.6267 19.9925C11.6983 20.9828 10.4603 21.478 9.03675 21.478C7.61315 21.478 6.43714 20.9828 5.5087 19.9925C4.95164 19.3735 4.58027 18.6927 4.33269 17.888L0.123792 19.4973C0.55706 20.7352 1.29981 21.9112 2.35203 22.9635C4.2089 24.8203 6.43714 25.7488 9.03675 25.7488C10.8317 25.7488 12.441 25.3155 13.9265 24.5109C15.412 23.6443 16.588 22.4683 17.4545 20.9828C17.7021 20.4876 17.9497 19.9925 18.1354 19.4973L13.8027 17.888ZM5.44681 12.3793C6.37524 11.389 7.61315 10.8938 8.97486 10.8938C10.3985 10.8938 11.6364 11.389 12.5648 12.3793C13.1219 12.9364 13.4932 13.6172 13.6789 14.36L17.8878 12.7507C17.7021 12.3174 17.5164 11.8842 17.2689 11.4509C16.4023 9.96541 15.2263 8.78939 13.6789 7.92285C12.1315 7.05632 10.5222 6.62305 8.85106 6.62305C6.43714 6.62305 4.33269 7.42769 2.53772 9.09887C1.3617 10.1511 0.55706 11.389 0 12.6888L4.2089 14.2981C4.51838 13.5553 4.88975 12.9364 5.44681 12.3793Z" fill="#F94E1E"/>
<path d="M38.4024 9.28433C36.7314 7.48936 34.6884 6.56093 32.3365 6.56093C31.2224 6.56093 30.2321 6.74661 29.2418 7.17988C28.2514 7.61315 27.3849 8.23211 26.5184 9.03675V0H22V25.3153H26.5184V23.3965C27.4468 24.2631 28.3133 24.882 29.2418 25.2534C30.1702 25.6248 31.1605 25.8104 32.2127 25.8104C34.5644 25.8104 36.6074 24.882 38.3404 23.087C40.0734 21.2302 40.9404 19.0019 40.9404 16.2785C40.9404 13.3694 40.0734 11.0793 38.4024 9.28433ZM34.9364 20.0542C34.0077 21.1064 32.7698 21.6015 31.4081 21.6015C29.9845 21.6015 28.7466 21.1064 27.8182 20.1161C26.8897 19.1257 26.3946 17.8259 26.3946 16.1547C26.3946 14.5455 26.8897 13.2456 27.8182 12.3172C28.7466 11.3269 29.9845 10.8317 31.4081 10.8317C32.8317 10.8317 34.0077 11.3269 34.9984 12.3172C35.9264 13.3075 36.4214 14.6073 36.4214 16.1547C36.3594 17.764 35.8644 19.0638 34.9364 20.0542Z" fill="#ffffff"/>
</svg>
