<svg width="16" height="16" viewBox="0 0 16 16" fill="none" xmlns="http://www.w3.org/2000/svg">
<path d="M11.9324 0.491699H3.3488C2.92752 0.49164 2.51035 0.574566 2.12112 0.735742C1.73189 0.896918 1.37822 1.13319 1.0803 1.43106C0.782392 1.72893 0.546073 2.08256 0.384841 2.47177C0.22361 2.86098 0.140625 3.27814 0.140625 3.69942L0.140625 12.2835C0.140625 13.1343 0.478628 13.9503 1.08028 14.552C1.68193 15.1536 2.49794 15.4917 3.3488 15.4917H6.42288V10.1989H4.48607L4.5247 7.9844H6.42288V6.0685C6.42288 4.6476 7.7006 2.9726 10.7951 3.66987V5.52987L9.85559 5.54668C9.20741 5.5585 8.77196 6.00396 8.77196 6.65214V7.9844H10.7951L10.4688 10.1989H8.77196V15.4917H11.9324C12.3537 15.4917 12.7709 15.4087 13.1601 15.2474C13.5494 15.0862 13.903 14.8499 14.2009 14.552C14.4988 14.2541 14.7351 13.9004 14.8964 13.5112C15.0576 13.122 15.1406 12.7048 15.1406 12.2835V3.69942C15.1406 3.27814 15.0576 2.86098 14.8964 2.47177C14.7351 2.08256 14.4988 1.72893 14.2009 1.43106C13.903 1.13319 13.5493 0.896918 13.1601 0.735742C12.7709 0.574566 12.3537 0.49164 11.9324 0.491699Z" fill="#ffffff"/>
</svg>
