<?xml version="1.0" standalone="no"?>
<!DOCTYPE svg PUBLIC "-//W3C//DTD SVG 20010904//EN"
 "http://www.w3.org/TR/2001/REC-SVG-20010904/DTD/svg10.dtd">
<svg version="1.0" xmlns="http://www.w3.org/2000/svg"
 width="1792.000000pt" height="2048.000000pt" viewBox="0 0 1792.000000 2048.000000"
 preserveAspectRatio="xMidYMid meet">

<g transform="translate(0.000000,2048.000000) scale(0.100000,-0.100000)"
fill="#6F7787" stroke="none">
<path d="M1690 19185 c-222 -28 -400 -80 -600 -176 -604 -291 -1010 -870
-1080 -1539 -13 -131 -13 -14329 0 -14460 70 -669 475 -1247 1080 -1539 204
-99 406 -156 642 -181 131 -14 14323 -14 14458 0 581 61 1098 374 1416 861
166 253 272 552 304 859 13 131 13 14329 0 14460 -70 672 -473 1246 -1081
1540 -203 97 -411 156 -639 180 -62 6 -2612 9 -7245 9 -5803 -1 -7170 -4
-7255 -14z m7825 -2569 c1298 -128 2466 -572 3452 -1312 1411 -1060 2303
-2607 2508 -4349 54 -468 58 -1003 9 -1485 -154 -1539 -808 -2956 -1859 -4029
-681 -695 -1477 -1208 -2398 -1542 -132 -48 -149 -52 -237 -53 -130 -1 -187
19 -261 93 -102 103 -95 -12 -90 1351 2 848 0 1221 -8 1310 -37 399 -162 715
-371 942 -40 44 -57 69 -48 72 7 2 83 12 168 21 718 76 1249 204 1622 391 541
272 886 692 1072 1308 140 460 194 1187 120 1616 -61 358 -233 677 -572 1058
-57 65 -73 88 -69 105 3 12 20 69 37 127 105 356 113 779 24 1203 -27 127
-115 410 -136 440 -32 42 -213 46 -389 7 -340 -74 -852 -321 -1347 -648 l-92
-61 -177 44 c-278 69 -560 117 -893 152 -240 25 -944 25 -1187 0 -340 -35
-655 -90 -941 -163 l-133 -34 -87 59 c-149 100 -429 264 -612 359 -464 241
-834 350 -1058 312 l-71 -12 -29 -81 c-120 -332 -166 -592 -166 -942 -1 -296
24 -464 101 -699 25 -77 25 -79 7 -101 -11 -13 -59 -69 -107 -126 -180 -213
-327 -464 -397 -677 -62 -193 -89 -373 -97 -662 -11 -397 33 -839 117 -1170
108 -424 279 -752 530 -1014 430 -448 1028 -670 2135 -791 83 -9 156 -19 163
-21 8 -2 -12 -33 -53 -81 -167 -195 -271 -420 -327 -704 l-22 -110 -45 -20
c-85 -38 -276 -97 -381 -118 -487 -97 -891 7 -1207 312 -113 109 -188 205
-289 368 -91 149 -143 216 -239 311 -236 235 -617 403 -875 385 -148 -11 -210
-42 -210 -107 0 -86 130 -224 307 -328 239 -140 526 -544 696 -978 84 -214
205 -375 381 -506 362 -270 985 -368 1694 -267 79 12 145 19 147 17 2 -1 6
-374 10 -828 9 -917 10 -885 -57 -986 -62 -92 -195 -144 -332 -130 -151 15
-710 247 -1076 446 -1320 716 -2342 1839 -2934 3223 -701 1638 -725 3537 -66
5183 87 216 287 627 400 819 574 977 1371 1756 2356 2306 844 471 1780 739
2834 813 144 10 903 -3 1055 -18z m-4690 -8897 c38 -34 45 -67 19 -93 -45 -45
-164 12 -164 79 0 32 20 45 67 45 33 0 50 -7 78 -31z m241 -210 c31 -15 48
-32 63 -63 26 -52 26 -57 0 -90 -15 -19 -30 -26 -56 -26 -93 0 -162 128 -97
179 33 26 38 26 90 0z m279 -345 c36 -23 79 -117 70 -151 -22 -88 -118 -83
-182 9 -37 55 -37 112 1 145 32 27 66 27 111 -3z m311 -370 c74 -35 126 -130
101 -183 -29 -61 -103 -60 -173 2 -71 62 -84 128 -33 171 35 30 58 32 105 10z
m479 -285 c56 -16 105 -68 105 -111 0 -65 -72 -96 -166 -72 -52 13 -114 68
-114 103 0 28 38 70 73 80 44 13 56 13 102 0z m1088 -28 c36 -14 67 -51 67
-79 0 -14 -14 -38 -33 -57 -61 -61 -170 -70 -221 -18 -31 31 -33 57 -7 99 33
54 126 80 194 55z m-497 -70 c76 -35 82 -108 12 -151 -64 -39 -200 -21 -228
29 -50 94 96 176 216 122z"/>
</g>
</svg>
