<svg width="16" height="16" viewBox="0 0 16 16" fill="none" xmlns="http://www.w3.org/2000/svg">
<path d="M9.97425 3.5426H5.16654C4.62406 3.5426 4.10379 3.7581 3.72019 4.1417C3.33659 4.5253 3.12109 5.04556 3.12109 5.58805V10.3949C3.12109 10.9373 3.33659 11.4576 3.72019 11.8412C4.10379 12.2248 4.62406 12.4403 5.16654 12.4403H9.97425C10.5167 12.4403 11.037 12.2248 11.4206 11.8412C11.8042 11.4576 12.0197 10.9373 12.0197 10.3949V5.58805C12.0197 5.04556 11.8042 4.5253 11.4206 4.1417C11.037 3.7581 10.5167 3.5426 9.97425 3.5426ZM7.57108 10.8103C7.0137 10.8103 6.46883 10.645 6.00539 10.3354C5.54194 10.0257 5.18073 9.58556 4.96743 9.0706C4.75413 8.55565 4.69832 7.98901 4.80706 7.44234C4.9158 6.89567 5.1842 6.39351 5.57833 5.99938C5.97246 5.60526 6.47461 5.33685 7.02128 5.22811C7.56795 5.11937 8.13459 5.17518 8.64955 5.38848C9.1645 5.60178 9.60464 5.96299 9.9143 6.42644C10.224 6.88989 10.3893 7.43475 10.3893 7.99213C10.3882 8.73923 10.0909 9.45541 9.56263 9.98369C9.03436 10.512 8.31817 10.8092 7.57108 10.8103ZM10.537 5.69032C10.4054 5.69041 10.2768 5.65148 10.1674 5.57844C10.0579 5.5054 9.97262 5.40155 9.92223 5.28002C9.87185 5.15849 9.85864 5.02474 9.88428 4.8957C9.90993 4.76666 9.97327 4.64813 10.0663 4.5551C10.1593 4.46207 10.2779 4.39873 10.4069 4.37308C10.5359 4.34744 10.6697 4.36065 10.7912 4.41104C10.9127 4.46142 11.0166 4.54673 11.0896 4.65615C11.1627 4.76558 11.2016 4.89422 11.2015 5.02578C11.2014 5.20199 11.1313 5.37095 11.0068 5.49555C10.8822 5.62015 10.7132 5.6902 10.537 5.69032Z" fill="#ffffff"/>
<path d="M8.85505 9.27517C9.56403 8.56619 9.56403 7.41672 8.85505 6.70774C8.14608 5.99876 6.9966 5.99876 6.28762 6.70774C5.57865 7.41672 5.57865 8.56619 6.28762 9.27517C6.9966 9.98415 8.14608 9.98415 8.85505 9.27517Z" fill="#ffffff"/>
<path d="M11.8621 0.491699H3.27848C2.8572 0.49164 2.44003 0.574566 2.0508 0.735742C1.66157 0.896918 1.3079 1.13319 1.00999 1.43106C0.712078 1.72893 0.475759 2.08256 0.314527 2.47177C0.153296 2.86098 0.0703125 3.27814 0.0703125 3.69942V12.2835C0.0703125 12.7048 0.153293 13.122 0.314519 13.5112C0.475745 13.9004 0.712056 14.2541 1.00996 14.552C1.30787 14.8499 1.66154 15.0862 2.05077 15.2474C2.44 15.4087 2.85718 15.4917 3.27848 15.4917H11.8621C12.7129 15.4917 13.529 15.1536 14.1306 14.552C14.7323 13.9503 15.0703 13.1343 15.0703 12.2835V3.69942C15.0703 3.27814 14.9873 2.86098 14.826 2.47177C14.6648 2.08256 14.4285 1.72893 14.1306 1.43106C13.8327 1.13319 13.479 0.896918 13.0898 0.735742C12.7005 0.574566 12.2834 0.49164 11.8621 0.491699ZM13.0225 10.3948C13.0217 11.2033 12.7002 11.9783 12.1286 12.5499C11.5569 13.1216 10.7819 13.4431 9.97346 13.4439H5.16575C4.35797 13.4421 3.58385 13.1202 3.013 12.5487C2.44216 11.9771 2.12115 11.2026 2.1203 10.3948V5.58805C2.12127 4.78035 2.44233 4.00596 3.01316 3.43453C3.584 2.8631 4.35805 2.54122 5.16575 2.53942H9.97346C10.7818 2.54026 11.5568 2.86171 12.1284 3.43325C12.7 4.00478 13.0216 4.77972 13.0225 5.58805V10.3948Z" fill="#ffffff"/>
</svg>
