<svg width="16" height="16" viewBox="0 0 16 16" fill="none" xmlns="http://www.w3.org/2000/svg">
<path d="M12.0744 0.491821H3.48942C3.06814 0.491762 2.65097 0.574688 2.26174 0.735864C1.87251 0.89704 1.51884 1.13331 1.22093 1.43118C0.923017 1.72905 0.686697 2.08268 0.525466 2.47189C0.364235 2.8611 0.28125 3.27826 0.28125 3.69954V12.2836C0.28125 13.1345 0.619252 13.9505 1.2209 14.5521C1.82255 15.1538 2.63856 15.4918 3.48942 15.4918H12.0744C12.9253 15.4918 13.7413 15.1538 14.3429 14.5521C14.9446 13.9505 15.2826 13.1345 15.2826 12.2836V3.69954C15.2826 3.27826 15.1996 2.8611 15.0383 2.47189C14.8771 2.08268 14.6408 1.72905 14.3429 1.43118C14.045 1.13331 13.6913 0.89704 13.3021 0.735864C12.9128 0.574688 12.4957 0.491762 12.0744 0.491821ZM5.16532 12.6609H3.25624V6.3968H5.16532V12.6609ZM4.20942 5.59408C3.98467 5.59408 3.76496 5.52743 3.57809 5.40257C3.39122 5.2777 3.24557 5.10023 3.15956 4.89258C3.07355 4.68494 3.05105 4.45646 3.09489 4.23602C3.13874 4.01559 3.24697 3.81311 3.40589 3.65419C3.56481 3.49527 3.76729 3.38704 3.98773 3.34319C4.20816 3.29935 4.43664 3.32185 4.64428 3.40786C4.85193 3.49387 5.0294 3.63952 5.15427 3.82639C5.27913 4.01326 5.34578 4.23297 5.34578 4.45772C5.34578 4.7591 5.22606 5.04814 5.01295 5.26125C4.79984 5.47435 4.5108 5.59408 4.20942 5.59408ZM12.4917 12.6609H10.4685V9.19588C10.4685 8.79225 10.3689 8.46361 10.1653 8.23134C9.7944 7.80953 9.05849 7.87634 8.66531 8.30361L8.64986 8.31998C8.39122 8.60043 8.24804 9.11316 8.24804 10.1836V12.6591H6.35305V6.3968H8.2485V7.26498C8.80304 6.31862 9.7094 6.18817 10.3603 6.23862L10.4603 6.24635C11.6067 6.33453 12.4926 6.98498 12.4926 9.36088L12.4917 12.6609Z" fill="#6F7787"/>
</svg>
