<svg width="15" height="16" viewBox="0 0 15 16" fill="none" xmlns="http://www.w3.org/2000/svg">
<path d="M11.7918 0.491699H3.20817C2.78689 0.49164 2.36972 0.574566 1.98049 0.735742C1.59126 0.896918 1.23759 1.13319 0.939678 1.43106C0.641765 1.72893 0.405443 2.08256 0.244212 2.47177C0.0829807 2.86098 -4.22963e-09 3.27814 0 3.69942V12.2835C0 13.1343 0.338001 13.9503 0.93965 14.552C1.5413 15.1536 2.35731 15.4917 3.20817 15.4917H11.7918C12.6426 15.4917 13.4586 15.1536 14.0603 14.552C14.6619 13.9503 15 13.1343 15 12.2835V3.69942C15 3.27814 14.917 2.86098 14.7557 2.47177C14.5945 2.08256 14.3582 1.72893 14.0603 1.43106C13.7624 1.13319 13.4087 0.896918 13.0195 0.735742C12.6302 0.574566 12.2131 0.49164 11.7918 0.491699ZM10.7577 5.44623C10.5074 7.12441 10.2566 8.80289 10.0054 10.4817C9.98983 10.5867 9.94773 10.686 9.88309 10.7702C9.81846 10.8544 9.73343 10.9207 9.63603 10.963C9.53863 11.0052 9.43207 11.0219 9.32643 11.0115C9.22078 11.0011 9.11953 10.9639 9.03224 10.9035L6.7977 9.35804C6.74997 9.3251 6.71011 9.28202 6.68099 9.23188C6.65186 9.18173 6.63419 9.12576 6.62924 9.06798C6.62429 9.0102 6.63218 8.95204 6.65234 8.89767C6.67251 8.8433 6.70445 8.79407 6.74588 8.75349L8.91088 6.63259C8.92803 6.61533 8.93817 6.59231 8.93931 6.568C8.94046 6.54369 8.93253 6.51982 8.91708 6.50102C8.90162 6.48222 8.87973 6.46984 8.85566 6.46626C8.83158 6.46269 8.80704 6.46818 8.78679 6.48168L6.00271 8.38168C5.83794 8.49418 5.6502 8.56861 5.45311 8.59959C5.25601 8.63056 5.0545 8.6173 4.86317 8.56077L3.69453 8.21531C3.44317 8.14122 3.39317 7.84349 3.63453 7.74213L9.96906 5.04714C10.4613 4.83441 10.81 5.09396 10.7577 5.44441V5.44623Z" fill="#ffffff"/>
</svg>
