<svg width="16" height="16" viewBox="0 0 16 16" fill="none" xmlns="http://www.w3.org/2000/svg">
<path d="M12.0027 0.491699H3.41911C2.99783 0.49164 2.58066 0.574566 2.19143 0.735742C1.8022 0.896918 1.44853 1.13319 1.15062 1.43106C0.852703 1.72893 0.616386 2.08256 0.455155 2.47177C0.293924 2.86098 0.210937 3.27814 0.210938 3.69942V12.2835C0.210938 13.1343 0.548944 13.9503 1.15059 14.552C1.75224 15.1536 2.56825 15.4917 3.41911 15.4917H12.0027C12.8536 15.4917 13.6696 15.1536 14.2712 14.552C14.8729 13.9503 15.2109 13.1343 15.2109 12.2835V3.69942C15.2109 3.27814 15.1279 2.86098 14.9667 2.47177C14.8054 2.08256 14.5691 1.72893 14.2712 1.43106C13.9733 1.13319 13.6196 0.896918 13.2304 0.735742C12.8412 0.574566 12.424 0.49164 12.0027 0.491699ZM11.6591 5.92305L11.6245 6.65032C11.5803 7.59206 11.2998 8.50752 10.8088 9.31236C10.3178 10.1172 9.63214 10.7855 8.815 11.2558L8.39273 11.4989C5.86774 12.6876 3.83138 11.7403 2.75638 11.1203C4.13456 11.1921 4.94502 10.8517 5.69774 10.2717C4.0582 10.1503 3.83775 8.85349 3.83775 8.85349C4.15365 8.85713 4.4341 8.8944 4.71001 8.82395C3.21684 8.33486 3.1282 7.26122 3.1282 6.81032C3.44229 6.96622 3.72956 7.0144 4.00047 7.05031C3.49729 6.61395 2.72775 5.71759 3.41547 4.28896C3.41547 4.28896 5.33319 6.49395 7.56728 6.39804L7.59046 6.38577C7.49836 5.95013 7.55109 5.49634 7.74063 5.09342C7.93017 4.69051 8.24615 4.36055 8.64047 4.15374C9.03479 3.94693 9.48588 3.87459 9.9251 3.94774C10.3643 4.02089 10.7676 4.23551 11.0736 4.55896C11.0809 4.55896 11.0891 4.55896 11.0955 4.55896C11.5464 4.55896 12.3945 4.07487 12.3945 4.07487C12.2173 4.7076 11.9968 4.89305 11.5309 5.1985C11.9181 5.15675 12.2986 5.0676 12.6641 4.93305C12.52 5.17123 12.055 5.75577 11.6591 5.92305Z" fill="#6F7787"/>
</svg>
